ffmpeg started on 2025-06-19 at 09:44:47
Report written to "D:\Convert\FFMetrics\reports\psnr_report-6.txt"
Log level: 32
Command line:
ffmpeg -hide_banner -nostdin -i "G:\\\xc0\xed\xe8\xec\xe5\\[\xd2\xee\xef-4]\\Fate\\\xc4\xee\xef\xee\xeb\xed\xe5\xed\xe8\xe5 - \xcf\xee\xf1\xeb\xe5\xe4\xed\xe8\xe9 \xe2\xfb\xe7\xee\xe2 \xed\xe0 \xe1\xe8\xf1\\Fate_Extra_Last_Encore_[07]_[AniLibria_TV]_[HDTV-Rip_720p]_HEVC.mkv" -i "G:\\\xc0\xed\xe8\xec\xe5\\[\xd2\xee\xef-4]\\Fate\\\xc4\xee\xef\xee\xeb\xed\xe5\xed\xe8\xe5 - \xcf\xee\xf1\xeb\xe5\xe4\xed\xe8\xe9 \xe2\xfb\xe7\xee\xe2 \xed\xe0 \xe1\xe8\xf1\\Fate_Extra_Last_Encore_[07]_[AniLibria_TV]_[HDTV-Rip_720p].mkv" -lavfi "[0:v]settb=AVTB,setpts=PTS-STARTPTS,format=pix_fmts=yuv420p10,fps=24000/1001,scale=1280:720:flags=bicubic[main];[1:v]settb=AVTB,setpts=PTS-STARTPTS,format=pix_fmts=yuv420p,fps=24000/1001,scale=1280:720:flags=bicubic[ref];[main][ref]psnr=eof_action=endall:stats_file='D\\:/Convert/FFMetrics/logs/psnr_logfile-6.txt'" -f null -
Input #0, matroska,webm, from 'G:\Аниме\[Топ-4]\Fate\Дополнение - Последний вызов на бис\Fate_Extra_Last_Encore_[07]_[AniLibria_TV]_[HDTV-Rip_720p]_HEVC.mkv':
  Metadata:
    ENCODER         : Lavf61.7.100
  Duration: 00:24:00.11, start: -0.021000, bitrate: 1479 kb/s
  Stream #0:0(jpn): Video: hevc (Main 10), yuv420p10le(tv, bt709, progressive), 1280x720 [SAR 1:1 DAR 16:9], 23.81 fps, 23.81 tbr, 1k tbn (default)
      Metadata:
        ENCODER         : Lavc61.19.100 libx265
        BPS             : 1281952
        DURATION        : 00:24:00.012000000
        NUMBER_OF_FRAMES: 34525
        NUMBER_OF_BYTES : 230753428
        _STATISTICS_WRITING_APP: mkvpropedit v66.0.0 ('Josie') 64-bit
        _STATISTICS_WRITING_DATE_UTC: 2025-06-17 12:46:15
        _STATISTICS_TAGS: BPS DURATION NUMBER_OF_FRAMES NUMBER_OF_BYTES
  Stream #0:1(rus): Audio: aac (LC), 48000 Hz, stereo, fltp (default)
      Metadata:
        title           : Ados Amikiri Anzen Hekomi Silv
        ENCODER         : Lavc61.19.100 aac
        BPS             : 193387
        DURATION        : 00:24:00.085000000
        NUMBER_OF_FRAMES: 67505
        NUMBER_OF_BYTES : 34811751
        _STATISTICS_WRITING_APP: mkvpropedit v66.0.0 ('Josie') 64-bit
        _STATISTICS_WRITING_DATE_UTC: 2025-06-17 12:46:15
        _STATISTICS_TAGS: BPS DURATION NUMBER_OF_FRAMES NUMBER_OF_BYTES
  Stream #0:2(rus): Subtitle: ass (ssa) (default) (forced)
      Metadata:
        title           : Надписи
        BPS             : 29
        DURATION        : 00:22:28.250000000
        NUMBER_OF_FRAMES: 28
        NUMBER_OF_BYTES : 4994
        _STATISTICS_WRITING_APP: mkvpropedit v66.0.0 ('Josie') 64-bit
        _STATISTICS_WRITING_DATE_UTC: 2025-06-17 12:46:15
        _STATISTICS_TAGS: BPS DURATION NUMBER_OF_FRAMES NUMBER_OF_BYTES
  Stream #0:3(rus): Subtitle: ass (ssa)
      Metadata:
        title           : Полные
        BPS             : 143
        DURATION        : 00:23:36.220000000
        NUMBER_OF_FRAMES: 267
        NUMBER_OF_BYTES : 25474
        _STATISTICS_WRITING_APP: mkvpropedit v66.0.0 ('Josie') 64-bit
        _STATISTICS_WRITING_DATE_UTC: 2025-06-17 12:46:15
        _STATISTICS_TAGS: BPS DURATION NUMBER_OF_FRAMES NUMBER_OF_BYTES
Input #1, matroska,webm, from 'G:\Аниме\[Топ-4]\Fate\Дополнение - Последний вызов на бис\Fate_Extra_Last_Encore_[07]_[AniLibria_TV]_[HDTV-Rip_720p].mkv':
  Metadata:
    encoder         : libebml v1.4.2 + libmatroska v1.6.4
    creation_time   : 2024-12-27T09:58:17.000000Z
  Duration: 00:24:00.09, start: 0.000000, bitrate: 3030 kb/s
  Stream #1:0(jpn): Video: h264 (Main), yuv420p(tv, bt709, progressive), 1280x720, SAR 1:1 DAR 16:9, 23.81 fps, 23.81 tbr, 1k tbn (default)
      Metadata:
        BPS             : 2825370
        DURATION        : 00:24:00.012000000
        NUMBER_OF_FRAMES: 34525
        NUMBER_OF_BYTES : 508570882
        _STATISTICS_WRITING_APP: mkvmerge v66.0.0 ('Josie') 64-bit
        _STATISTICS_WRITING_DATE_UTC: 2024-12-27 09:58:17
        _STATISTICS_TAGS: BPS DURATION NUMBER_OF_FRAMES NUMBER_OF_BYTES
  Stream #1:1(rus): Audio: aac (LC), 48000 Hz, stereo, fltp (default)
      Metadata:
        title           : Ados Amikiri Anzen Hekomi Silv
        BPS             : 192093
        DURATION        : 00:24:00.085000000
        NUMBER_OF_FRAMES: 67504
        NUMBER_OF_BYTES : 34578878
        _STATISTICS_WRITING_APP: mkvmerge v66.0.0 ('Josie') 64-bit
        _STATISTICS_WRITING_DATE_UTC: 2024-12-27 09:58:17
        _STATISTICS_TAGS: BPS DURATION NUMBER_OF_FRAMES NUMBER_OF_BYTES
  Stream #1:2(rus): Subtitle: ass (ssa) (default) (forced)
      Metadata:
        title           : Надписи
        BPS             : 29
        DURATION        : 00:22:28.250000000
        NUMBER_OF_FRAMES: 28
        NUMBER_OF_BYTES : 4994
        _STATISTICS_WRITING_APP: mkvmerge v66.0.0 ('Josie') 64-bit
        _STATISTICS_WRITING_DATE_UTC: 2024-12-27 09:58:17
        _STATISTICS_TAGS: BPS DURATION NUMBER_OF_FRAMES NUMBER_OF_BYTES
  Stream #1:3(rus): Subtitle: ass (ssa)
      Metadata:
        title           : Полные
        BPS             : 143
        DURATION        : 00:23:36.220000000
        NUMBER_OF_FRAMES: 267
        NUMBER_OF_BYTES : 25474
        _STATISTICS_WRITING_APP: mkvmerge v66.0.0 ('Josie') 64-bit
        _STATISTICS_WRITING_DATE_UTC: 2024-12-27 09:58:17
        _STATISTICS_TAGS: BPS DURATION NUMBER_OF_FRAMES NUMBER_OF_BYTES
  Stream #1:4: Attachment: ttf
      Metadata:
        filename        : KozGoPr6N-Medium_0.otf
        mimetype        : application/x-truetype-font
  Stream #1:5: Attachment: ttf
      Metadata:
        filename        : 9511(1).ttf
        mimetype        : application/x-truetype-font
  Stream #1:6: Attachment: ttf
      Metadata:
        filename        : arx.ttf
        mimetype        : application/x-truetype-font
  Stream #1:7: Attachment: ttf
      Metadata:
        filename        : BwSurcoDEMO-Black.otf
        mimetype        : application/x-truetype-font
  Stream #1:8: Attachment: ttf
      Metadata:
        filename        : BwSurcoDEMO-BlackItalic.otf
        mimetype        : application/x-truetype-font
  Stream #1:9: Attachment: ttf
      Metadata:
        filename        : BwSurcoDEMO-Bold.otf
        mimetype        : application/x-truetype-font
  Stream #1:10: Attachment: ttf
      Metadata:
        filename        : BwSurcoDEMO-BoldItalic.otf
        mimetype        : application/x-truetype-font
  Stream #1:11: Attachment: ttf
      Metadata:
        filename        : BwSurcoDEMO-Book.otf
        mimetype        : application/x-truetype-font
  Stream #1:12: Attachment: ttf
      Metadata:
        filename        : BwSurcoDEMO-BookItalic.otf
        mimetype        : application/x-truetype-font
  Stream #1:13: Attachment: ttf
      Metadata:
        filename        : BwSurcoDEMO-Light.otf
        mimetype        : application/x-truetype-font
  Stream #1:14: Attachment: ttf
      Metadata:
        filename        : BwSurcoDEMO-LightItalic.otf
        mimetype        : application/x-truetype-font
  Stream #1:15: Attachment: ttf
      Metadata:
        filename        : BwSurcoDEMO-Medium.otf
        mimetype        : application/x-truetype-font
  Stream #1:16: Attachment: ttf
      Metadata:
        filename        : BwSurcoDEMO-MediumItalic.otf
        mimetype        : application/x-truetype-font
  Stream #1:17: Attachment: ttf
      Metadata:
        filename        : BwSurcoDEMO-Regular.otf
        mimetype        : application/x-truetype-font
  Stream #1:18: Attachment: ttf
      Metadata:
        filename        : BwSurcoDEMO-RegularItalic.otf
        mimetype        : application/x-truetype-font
Stream mapping:
  Stream #0:0 (hevc) -> settb:default
  Stream #1:0 (h264) -> settb:default
  psnr:default -> Stream #0:0 (wrapped_avframe)
  Stream #0:1 -> #0:1 (aac (native) -> pcm_s16le (native))
Output #0, null, to 'pipe:':
  Metadata:
    encoder         : Lavf61.7.100
  Stream #0:0: Video: wrapped_avframe, yuv420p10le(tv, bt709, progressive), 1280x720 [SAR 1:1 DAR 16:9], q=2-31, 200 kb/s, 23.98 fps, 23.98 tbn
      Metadata:
        encoder         : Lavc61.19.100 wrapped_avframe
  Stream #0:1(rus): Audio: pcm_s16le, 48000 Hz, stereo, s16, 1536 kb/s (default)
      Metadata:
        title           : Ados Amikiri Anzen Hekomi Silv
        _STATISTICS_TAGS: BPS DURATION NUMBER_OF_FRAMES NUMBER_OF_BYTES
        BPS             : 193387
        DURATION        : 00:24:00.085000000
        NUMBER_OF_FRAMES: 67505
        NUMBER_OF_BYTES : 34811751
        _STATISTICS_WRITING_APP: mkvpropedit v66.0.0 ('Josie') 64-bit
        _STATISTICS_WRITING_DATE_UTC: 2025-06-17 12:46:15
        encoder         : Lavc61.19.100 pcm_s16le
frame=  450 fps=0.0 q=-0.0 size=N/A time=00:00:18.76 bitrate=N/A speed=35.7x    frame=  955 fps=914 q=-0.0 size=N/A time=00:00:39.83 bitrate=N/A speed=38.1x    frame= 1345 fps=865 q=-0.0 size=N/A time=00:00:56.09 bitrate=N/A speed=36.1x    frame= 1490 fps=718 q=-0.0 size=N/A time=00:01:02.14 bitrate=N/A speed=29.9x    frame= 1494 fps=579 q=-0.0 size=N/A time=00:01:02.31 bitrate=N/A speed=24.1x    frame= 1689 fps=544 q=-0.0 size=N/A time=00:01:10.44 bitrate=N/A speed=22.7x    frame= 1763 fps=488 q=-0.0 size=N/A time=00:01:13.53 bitrate=N/A speed=20.3x    frame= 1794 fps=434 q=-0.0 size=N/A time=00:01:14.82 bitrate=N/A speed=18.1x    frame= 1983 fps=427 q=-0.0 size=N/A time=00:01:22.70 bitrate=N/A speed=17.8x    frame= 2015 fps=390 q=-0.0 size=N/A time=00:01:24.04 bitrate=N/A speed=16.3x    frame= 2081 fps=367 q=-0.0 size=N/A time=00:01:26.79 bitrate=N/A speed=15.3x    frame= 2265 fps=366 q=-0.0 size=N/A time=00:01:34.46 bitrate=N/A speed=15.3x    frame= 2379 fps=355 q=-0.0 size=N/A time=00:01:39.22 bitrate=N/A speed=14.8x    frame= 2513 fps=348 q=-0.0 size=N/A time=00:01:44.81 bitrate=N/A speed=14.5x    frame= 2540 fps=328 q=-0.0 size=N/A time=00:01:45.93 bitrate=N/A speed=13.7x    frame= 2548 fps=309 q=-0.0 size=N/A time=00:01:46.27 bitrate=N/A speed=12.9x    frame= 2548 fps=290 q=-0.0 size=N/A time=00:01:46.27 bitrate=N/A speed=12.1x    frame= 2552 fps=275 q=-0.0 size=N/A time=00:01:46.43 bitrate=N/A speed=11.5x    frame= 2657 fps=271 q=-0.0 size=N/A time=00:01:50.81 bitrate=N/A speed=11.3x    frame= 2880 fps=279 q=-0.0 size=N/A time=00:02:00.12 bitrate=N/A speed=11.6x    frame= 3133 fps=289 q=-0.0 size=N/A time=00:02:10.67 bitrate=N/A speed=12.1x    frame= 3649 fps=321 q=-0.0 size=N/A time=00:02:32.19 bitrate=N/A speed=13.4x    frame= 3969 fps=335 q=-0.0 size=N/A time=00:02:45.54 bitrate=N/A speed=  14x    frame= 4340 fps=351 q=-0.0 size=N/A time=00:03:01.05 bitrate=N/A speed=14.6x    frame= 4846 fps=376 q=-0.0 size=N/A time=00:03:22.11 bitrate=N/A speed=15.7x    frame= 5316 fps=396 q=-0.0 size=N/A time=00:03:41.72 bitrate=N/A speed=16.5x    frame= 5811 fps=417 q=-0.0 size=N/A time=00:04:02.36 bitrate=N/A speed=17.4x    frame= 6281 fps=435 q=-0.0 size=N/A time=00:04:21.97 bitrate=N/A speed=18.1x    frame= 6776 fps=453 q=-0.0 size=N/A time=00:04:42.61 bitrate=N/A speed=18.9x    frame= 7150 fps=462 q=-0.0 size=N/A time=00:04:58.21 bitrate=N/A speed=19.3x    frame= 7584 fps=474 q=-0.0 size=N/A time=00:05:16.31 bitrate=N/A speed=19.8x    frame= 7882 fps=478 q=-0.0 size=N/A time=00:05:28.74 bitrate=N/A speed=19.9x    frame= 8242 fps=484 q=-0.0 size=N/A time=00:05:43.76 bitrate=N/A speed=20.2x    frame= 8690 fps=495 q=-0.0 size=N/A time=00:06:02.44 bitrate=N/A speed=20.7x    frame= 9140 fps=506 q=-0.0 size=N/A time=00:06:21.21 bitrate=N/A speed=21.1x    frame= 9542 fps=514 q=-0.0 size=N/A time=00:06:37.98 bitrate=N/A speed=21.4x    frame=10017 fps=525 q=-0.0 size=N/A time=00:06:57.79 bitrate=N/A speed=21.9x    frame=10479 fps=535 q=-0.0 size=N/A time=00:07:17.06 bitrate=N/A speed=22.3x    frame=11034 fps=548 q=-0.0 size=N/A time=00:07:40.20 bitrate=N/A speed=22.9x    frame=11478 fps=556 q=-0.0 size=N/A time=00:07:58.72 bitrate=N/A speed=23.2x    frame=11938 fps=564 q=-0.0 size=N/A time=00:08:17.91 bitrate=N/A speed=23.5x    frame=12369 fps=571 q=-0.0 size=N/A time=00:08:35.89 bitrate=N/A speed=23.8x    frame=12737 fps=574 q=-0.0 size=N/A time=00:08:51.23 bitrate=N/A speed=23.9x    frame=13262 fps=584 q=-0.0 size=N/A time=00:09:13.13 bitrate=N/A speed=24.4x    frame=13779 fps=593 q=-0.0 size=N/A time=00:09:34.69 bitrate=N/A speed=24.7x    frame=14168 fps=597 q=-0.0 size=N/A time=00:09:50.92 bitrate=N/A speed=24.9x    frame=14573 fps=601 q=-0.0 size=N/A time=00:10:07.81 bitrate=N/A speed=25.1x    frame=15025 fps=606 q=-0.0 size=N/A time=00:10:26.66 bitrate=N/A speed=25.3x    frame=15433 fps=610 q=-0.0 size=N/A time=00:10:43.68 bitrate=N/A speed=25.5x    frame=15889 fps=616 q=-0.0 size=N/A time=00:11:02.70 bitrate=N/A speed=25.7x    frame=16329 fps=621 q=-0.0 size=N/A time=00:11:21.05 bitrate=N/A speed=25.9x    frame=16889 fps=629 q=-0.0 size=N/A time=00:11:44.41 bitrate=N/A speed=26.2x    frame=17379 fps=635 q=-0.0 size=N/A time=00:12:04.84 bitrate=N/A speed=26.5x    frame=17893 fps=642 q=-0.0 size=N/A time=00:12:26.28 bitrate=N/A speed=26.8x    frame=18338 fps=646 q=-0.0 size=N/A time=00:12:44.84 bitrate=N/A speed=26.9x    frame=18790 fps=650 q=-0.0 size=N/A time=00:13:03.69 bitrate=N/A speed=27.1x    frame=19087 fps=649 q=-0.0 size=N/A time=00:13:16.08 bitrate=N/A speed=27.1x    frame=19327 fps=645 q=-0.0 size=N/A time=00:13:26.09 bitrate=N/A speed=26.9x    frame=19782 fps=649 q=-0.0 size=N/A time=00:13:45.07 bitrate=N/A speed=27.1x    frame=20193 fps=652 q=-0.0 size=N/A time=00:14:02.21 bitrate=N/A speed=27.2x    frame=20737 fps=658 q=-0.0 size=N/A time=00:14:24.90 bitrate=N/A speed=27.5x    frame=21361 fps=667 q=-0.0 size=N/A time=00:14:50.93 bitrate=N/A speed=27.8x    frame=21799 fps=670 q=-0.0 size=N/A time=00:15:09.19 bitrate=N/A speed=  28x    frame=22305 fps=675 q=-0.0 size=N/A time=00:15:30.30 bitrate=N/A speed=28.2x    frame=22752 fps=678 q=-0.0 size=N/A time=00:15:48.94 bitrate=N/A speed=28.3x    frame=23140 fps=679 q=-0.0 size=N/A time=00:16:05.13 bitrate=N/A speed=28.3x    frame=23405 fps=676 q=-0.0 size=N/A time=00:16:16.18 bitrate=N/A speed=28.2x    frame=23733 fps=676 q=-0.0 size=N/A time=00:16:29.86 bitrate=N/A speed=28.2x    frame=24258 fps=681 q=-0.0 size=N/A time=00:16:51.76 bitrate=N/A speed=28.4x    frame=24684 fps=683 q=-0.0 size=N/A time=00:17:09.52 bitrate=N/A speed=28.5x    frame=25076 fps=684 q=-0.0 size=N/A time=00:17:25.87 bitrate=N/A speed=28.5x    frame=25558 fps=687 q=-0.0 size=N/A time=00:17:45.98 bitrate=N/A speed=28.7x    frame=26015 fps=690 q=-0.0 size=N/A time=00:18:05.04 bitrate=N/A speed=28.8x    frame=26541 fps=695 q=-0.0 size=N/A time=00:18:26.98 bitrate=N/A speed=  29x    frame=27006 fps=697 q=-0.0 size=N/A time=00:18:46.37 bitrate=N/A speed=29.1x    frame=27478 fps=700 q=-0.0 size=N/A time=00:19:06.06 bitrate=N/A speed=29.2x    frame=27835 fps=700 q=-0.0 size=N/A time=00:19:20.95 bitrate=N/A speed=29.2x    frame=28245 fps=701 q=-0.0 size=N/A time=00:19:38.05 bitrate=N/A speed=29.3x    frame=28556 fps=700 q=-0.0 size=N/A time=00:19:51.02 bitrate=N/A speed=29.2x    frame=28991 fps=702 q=-0.0 size=N/A time=00:20:09.16 bitrate=N/A speed=29.3x    frame=29497 fps=705 q=-0.0 size=N/A time=00:20:30.27 bitrate=N/A speed=29.4x    frame=30012 fps=709 q=-0.0 size=N/A time=00:20:51.75 bitrate=N/A speed=29.6x    frame=30470 fps=711 q=-0.0 size=N/A time=00:21:10.85 bitrate=N/A speed=29.6x    frame=30760 fps=709 q=-0.0 size=N/A time=00:21:22.94 bitrate=N/A speed=29.6x    frame=31006 fps=706 q=-0.0 size=N/A time=00:21:33.20 bitrate=N/A speed=29.5x    frame=31271 fps=704 q=-0.0 size=N/A time=00:21:44.26 bitrate=N/A speed=29.4x    frame=31696 fps=705 q=-0.0 size=N/A time=00:22:01.98 bitrate=N/A speed=29.4x    frame=32012 fps=704 q=-0.0 size=N/A time=00:22:15.16 bitrate=N/A speed=29.4x    frame=32297 fps=703 q=-0.0 size=N/A time=00:22:27.05 bitrate=N/A speed=29.3x    frame=32599 fps=701 q=-0.0 size=N/A time=00:22:39.64 bitrate=N/A speed=29.3x    frame=32848 fps=699 q=-0.0 size=N/A time=00:22:50.03 bitrate=N/A speed=29.2x    frame=33064 fps=696 q=-0.0 size=N/A time=00:22:59.04 bitrate=N/A speed=  29x    frame=33263 fps=693 q=-0.0 size=N/A time=00:23:07.34 bitrate=N/A speed=28.9x    frame=33527 fps=691 q=-0.0 size=N/A time=00:23:18.35 bitrate=N/A speed=28.8x    frame=33945 fps=692 q=-0.0 size=N/A time=00:23:35.78 bitrate=N/A speed=28.9x    frame=34468 fps=695 q=-0.0 size=N/A time=00:23:57.60 bitrate=N/A speed=  29x    [Parsed_psnr_10 @ 000002c9fe501e80] PSNR y:32.362128 u:42.915443 v:41.021611 average:33.886198 min:7.489471 max:62.513234
[out#0/null @ 000002c9fdb7fa40] video:14835KiB audio:270020KiB subtitle:0KiB other streams:0KiB global headers:0KiB muxing overhead: unknown
frame=34526 fps=696 q=-0.0 Lsize=N/A time=00:24:00.02 bitrate=N/A speed=  29x    
